Title:
Mosquita y Mari

Country:
USA/2012

Language:
English

Subtitle:
English

Director:
Aurora Guerrero

Writer:
Aurora Guerrero

Stars:
Fenessa Pineda, Venecia Troncoso, Joaquín Garrido

Synopsis:
After being assigned as study partners, two Chicana high schoolers find a bond that confuses them at times. 

Trivia:
Official Selection Sundance Film Festival 2012

Imdb: 
http://www.imdb.com/title/tt1978480/?ref_=sr_1

Trailer: 
http://www.kino-zeit.de/filme/trailer/mosquita-y-mari


Media Info:

General
Complete name                            : Mosquita.y.Mari.2012.BRRip.XviD.HORiZON-ArtSubs.avi
Format                                   : AVI
Format/Info                              : Audio Video Interleave
Format profile                           : OpenDML
File size                                : 1.43 GiB
Duration                                 : 1h 25mn
Overall bit rate                         : 2 400 Kbps
Writing application                      : Lavf52.94.0

Video
ID                                       : 0
Format                                   : MPEG-4 Visual
Format profile                           : Simple@L3
Format settings, BVOP                    : No
Format settings, QPel                    : No
Format settings, GMC                     : No warppoints
Format settings, Matrix                  : Default (H.263)
Codec ID                                 : XVID
Codec ID/Hint                            : XviD
Duration                                 : 1h 25mn
Bit rate                                 : 2 164 Kbps
Width                                    : 1 280 pixels
Height                                   : 720 pixels
Display aspect ratio                     : 16:9
Frame rate                               : 23.976 fps
Color space                              : YUV
Chroma subsampling                       : 4:2:0
Bit depth                                : 8 bits
Scan type                                : Progressive
Compression mode                         : Lossy
Bits/(Pixel*Frame)                       : 0.098
Stream size                              : 1.29 GiB (90%)
Writing library                          : XviD 1.2.1 (UTC 2008-12-04)

Audio
ID                                       : 1
Format                                   : AC-3
Format/Info                              : Audio Coding 3
Mode extension                           : CM (complete main)
Format settings, Endianness              : Big
Codec ID                                 : 2000
Duration                                 : 1h 25mn
Bit rate mode                            : Constant
Bit rate                                 : 224 Kbps
Channel(s)                               : 2 channels
Channel positions                        : Front: L R
Sampling rate                            : 48.0 KHz
Bit depth                                : 16 bits
Compression mode                         : Lossy
Stream size                              : 136 MiB (9%)
Alignment                                : Aligned on interleaves
Interleave, duration                     : 32 ms (0.77 video frame)
Interleave, preload duration             : 32 ms

